<?xml version="1.0" encoding="UTF-8" standalone="no"?>
<!-- Created with Inkscape (http://www.inkscape.org/) -->

<svg
   xmlns:dc="http://purl.org/dc/elements/1.1/"
   xmlns:cc="http://creativecommons.org/ns#"
   xmlns:rdf="http://www.w3.org/1999/02/22-rdf-syntax-ns#"
   xmlns:svg="http://www.w3.org/2000/svg"
   xmlns="http://www.w3.org/2000/svg"
   xmlns:sodipodi="http://sodipodi.sourceforge.net/DTD/sodipodi-0.dtd"
   xmlns:inkscape="http://www.inkscape.org/namespaces/inkscape"
   width="32.462891mm"
   height="26.286123mm"
   viewBox="0 0 32.462891 26.286123"
   version="1.1"
   id="svg8"
   inkscape:version="0.92.3 (2405546, 2018-03-11)"
   sodipodi:docname="rpmd.svg">
  <sodipodi:namedview
     id="base"
     pagecolor="#ffffff"
     bordercolor="#666666"
     borderopacity="1.0"
     inkscape:pageopacity="0.0"
     inkscape:pageshadow="2"
     inkscape:zoom="1.979899"
     inkscape:cx="-124.89127"
     inkscape:cy="96.136167"
     inkscape:document-units="mm"
     inkscape:current-layer="g4493"
     showgrid="false"
     inkscape:window-width="1920"
     inkscape:window-height="1106"
     inkscape:window-x="2560"
     inkscape:window-y="32"
     inkscape:window-maximized="1"
     fit-margin-top="0"
     fit-margin-left="0"
     fit-margin-right="0"
     fit-margin-bottom="0"
     inkscape:snap-global="false" />
  <defs
     id="defs2">
    <marker
       inkscape:stockid="Arrow1Mend"
       orient="auto"
       refY="0"
       refX="0"
       id="Arrow1Mend"
       style="overflow:visible"
       inkscape:isstock="true">
      <path
         id="path2212"
         d="M 0,0 5,-5 -12.5,0 5,5 Z"
         style="fill:#000000;fill-opacity:1;fill-rule:evenodd;stroke:#000000;stroke-width:1.00000003pt;stroke-opacity:1"
         transform="matrix(-0.4,0,0,-0.4,-4,0)"
         inkscape:connector-curvature="0" />
    </marker>
  </defs>
  <metadata
     id="metadata5">
    <rdf:RDF>
      <cc:Work
         rdf:about="">
        <dc:format>image/svg+xml</dc:format>
        <dc:type
           rdf:resource="http://purl.org/dc/dcmitype/StillImage" />
        <dc:title></dc:title>
      </cc:Work>
    </rdf:RDF>
  </metadata>
  <g
     inkscape:label="Layer 1"
     inkscape:groupmode="layer"
     id="layer1"
     transform="translate(-213.53084,-102.46955)">
    <path
       id="path2079"
       title="t+cos(3*t) 3*sin(3*t)"
       d="m 226.95519,103.75991 c 0.0486,-0.43818 0.006,-0.86444 -0.0782,-1.04669 -0.0841,-0.18226 -0.20271,-0.10969 -0.26446,0.17706 -0.0618,0.28676 -0.0605,0.77332 0.0292,1.19382 0.0898,0.42049 0.26624,0.75217 0.45949,0.81478 0.19325,0.0626 0.3956,-0.14838 0.52332,-0.51686 0.12772,-0.36849 0.17627,-0.87546 0.14606,-1.24421 -0.0302,-0.36876 -0.1353,-0.57898 -0.2312,-0.51687 -0.0959,0.0621 -0.17483,0.39443 -0.16738,0.81479 0.007,0.42036 0.10389,0.90667 0.26291,1.19381 0.15901,0.28713 0.37499,0.35887 0.55657,0.17707 0.18158,-0.1818 0.32151,-0.60852 0.37028,-1.0467 0.0488,-0.43818 0.006,-0.86444 -0.0782,-1.04669 -0.0841,-0.18226 -0.2027,-0.10969 -0.26446,0.17706 -0.0618,0.28676 -0.0605,0.77332 0.0292,1.19382 0.0898,0.42049 0.26625,0.75217 0.4595,0.81478 0.19324,0.0626 0.39559,-0.14838 0.52331,-0.51686 0.12772,-0.36849 0.17627,-0.87546 0.14606,-1.24421 -0.0302,-0.36876 -0.1353,-0.57898 -0.2312,-0.51687 -0.0959,0.0621 -0.17483,0.39443 -0.16737,0.81479 0.007,0.42036 0.10388,0.90667 0.2629,1.19381 0.15902,0.28713 0.37499,0.35887 0.55657,0.17707 0.18159,-0.1818 0.32152,-0.60852 0.37029,-1.0467 0.0488,-0.43818 0.006,-0.86444 -0.0782,-1.04669 -0.0841,-0.18226 -0.2027,-0.10969 -0.26445,0.17706 -0.0618,0.28676 -0.0605,0.77332 0.0292,1.19382 0.0898,0.42049 0.26625,0.75217 0.4595,0.81478 0.19325,0.0626 0.39559,-0.14838 0.52332,-0.51686 0.12772,-0.36849 0.17626,-0.87546 0.14605,-1.24421 -0.0302,-0.36876 -0.1353,-0.57898 -0.23119,-0.51687 -0.0959,0.0621 -0.17484,0.39443 -0.16738,0.81479 0.007,0.42036 0.10389,0.90667 0.2629,1.19381 0.15902,0.28713 0.375,0.35887 0.55658,0.17707 0.18158,-0.1818 0.32151,-0.60852 0.37028,-1.0467 0.0488,-0.43818 0.006,-0.86444 -0.0782,-1.04669 -0.0841,-0.18226 -0.20271,-0.10969 -0.26446,0.17706 -0.0618,0.28676 -0.0605,0.77332 0.0292,1.19382 0.0898,0.42049 0.26624,0.75217 0.45949,0.81478 0.19325,0.0626 0.3956,-0.14838 0.52332,-0.51686 0.12772,-0.36849 0.17627,-0.87546 0.14606,-1.24421 -0.0302,-0.36876 -0.1353,-0.57898 -0.2312,-0.51687 -0.0959,0.0621 -0.17483,0.39443 -0.16738,0.81479 0.007,0.42036 0.10389,0.90667 0.26291,1.19381 0.15901,0.28713 0.37499,0.35887 0.55657,0.17707 0.18158,-0.1818 0.32151,-0.60852 0.37028,-1.0467 0.0488,-0.43818 0.006,-0.86444 -0.0782,-1.04669 -0.0841,-0.18226 -0.2027,-0.10969 -0.26446,0.17706 -0.0617,0.28676 -0.0605,0.77332 0.0292,1.19382 0.0898,0.42049 0.26625,0.75217 0.4595,0.81478 0.19324,0.0626 0.39559,-0.14838 0.52331,-0.51686 0.12772,-0.36849 0.17627,-0.87546 0.14606,-1.24421 -0.0302,-0.36876 -0.1353,-0.57898 -0.2312,-0.51687 -0.0959,0.0621 -0.17483,0.39443 -0.16737,0.81479 0.007,0.42036 0.10388,0.90667 0.2629,1.19381 0.15902,0.28713 0.37499,0.35887 0.55657,0.17707 0.18159,-0.1818 0.32152,-0.60852 0.37029,-1.0467 0.0488,-0.43818 0.006,-0.86444 -0.0782,-1.04669 -0.0841,-0.18226 -0.2027,-0.10969 -0.26445,0.17706 -0.0618,0.28676 -0.0605,0.77332 0.0292,1.19382 0.0898,0.42049 0.26625,0.75217 0.4595,0.81478 0.19325,0.0626 0.39559,-0.14838 0.52332,-0.51686 0.12772,-0.36849 0.17626,-0.87546 0.14605,-1.24421 -0.0302,-0.36876 -0.1353,-0.57898 -0.23119,-0.51687 -0.0959,0.0621 -0.17484,0.39443 -0.16738,0.81479 0.007,0.42036 0.10389,0.90667 0.2629,1.19381 0.15902,0.28713 0.375,0.35887 0.55658,0.17707 0.18158,-0.1818 0.32151,-0.60852 0.37028,-1.0467 0.0488,-0.43818 0.006,-0.86444 -0.0782,-1.04669 -0.0841,-0.18226 -0.20271,-0.10969 -0.26446,0.17706 -0.0617,0.28676 -0.0605,0.77332 0.0292,1.19382 0.0898,0.42049 0.26624,0.75217 0.45949,0.81478 0.19325,0.0626 0.3956,-0.14838 0.52332,-0.51686 0.12772,-0.36849 0.17627,-0.87546 0.14606,-1.24421 -0.0302,-0.36876 -0.1353,-0.57898 -0.2312,-0.51687 -0.0959,0.0621 -0.17483,0.39443 -0.16738,0.81479 0.007,0.42036 0.10389,0.90667 0.26291,1.19381 0.15901,0.28713 0.37499,0.35887 0.55657,0.17707 0.18158,-0.1818 0.32151,-0.60852 0.37028,-1.0467 0.0488,-0.43818 0.006,-0.86444 -0.0782,-1.04669 -0.0841,-0.18226 -0.2027,-0.10969 -0.26446,0.17706 -0.0617,0.28676 -0.0605,0.77332 0.0292,1.19382 0.0897,0.42049 0.26625,0.75217 0.4595,0.81478 0.19324,0.0626 0.39559,-0.14838 0.52331,-0.51686 0.12772,-0.36849 0.17627,-0.87546 0.14606,-1.24421 -0.0302,-0.36876 -0.1353,-0.57898 -0.2312,-0.51687 -0.0959,0.0621 -0.17483,0.39443 -0.16737,0.81479 0.007,0.42036 0.10388,0.90667 0.2629,1.19381 0.15902,0.28713 0.37499,0.35887 0.55657,0.17707 0.18159,-0.1818 0.32152,-0.60852 0.37029,-1.0467 0.0488,-0.43818 0.006,-0.86444 -0.0782,-1.04669 -0.0841,-0.18226 -0.2027,-0.10969 -0.26445,0.17706 -0.0618,0.28676 -0.0605,0.77332 0.0292,1.19382 0.0898,0.42049 0.26625,0.75217 0.4595,0.81478 0.19325,0.0626 0.39559,-0.14838 0.52332,-0.51686 0.12772,-0.36849 0.17626,-0.87546 0.14605,-1.24421 -0.0302,-0.36876 -0.1353,-0.57898 -0.23119,-0.51687 -0.0959,0.0621 -0.17484,0.39443 -0.16738,0.81479 0.007,0.42036 0.10389,0.90667 0.2629,1.19381 0.15902,0.28713 0.375,0.35887 0.55658,0.17707 0.18158,-0.1818 0.32151,-0.60852 0.37028,-1.0467"
       transform="matrix(0.99579241,0.09163777,-0.0920157,0.99575756,0,0)"
       style="color:#000000;clip-rule:nonzero;display:inline;overflow:visible;visibility:visible;opacity:1;isolation:auto;mix-blend-mode:normal;color-interpolation:sRGB;color-interpolation-filters:linearRGB;solid-color:#000000;solid-opacity:1;fill:none;fill-opacity:1;fill-rule:nonzero;stroke:#000000;stroke-width:0.09157132;stroke-linecap:butt;stroke-linejoin:miter;stroke-miterlimit:4;stroke-dasharray:none;stroke-dashoffset:0;stroke-opacity:1;color-rendering:auto;image-rendering:auto;shape-rendering:auto;text-rendering:auto;enable-background:accumulate"
       inkscape:connector-curvature="0" />
    <path
       style="color:#000000;clip-rule:nonzero;display:inline;overflow:visible;visibility:visible;opacity:1;isolation:auto;mix-blend-mode:normal;color-interpolation:sRGB;color-interpolation-filters:linearRGB;solid-color:#000000;solid-opacity:1;fill:none;fill-opacity:1;fill-rule:nonzero;stroke:#000000;stroke-width:0.06967524;stroke-linecap:butt;stroke-linejoin:miter;stroke-miterlimit:4;stroke-dasharray:none;stroke-dashoffset:0;stroke-opacity:1;color-rendering:auto;image-rendering:auto;shape-rendering:auto;text-rendering:auto;enable-background:accumulate"
       d="m 217.54188,114.42901 c -0.34778,-0.007 -0.67655,-0.0852 -0.81014,-0.16987 -0.13359,-0.0847 -0.0643,-0.16984 0.16649,-0.1883 0.23076,-0.0185 0.61107,0.0332 0.93035,0.14688 0.31929,0.11386 0.55992,0.28627 0.58839,0.44383 0.0285,0.15755 -0.15795,0.29379 -0.45961,0.35533 -0.30167,0.0615 -0.70322,0.0468 -0.98835,-0.0152 -0.28513,-0.0619 -0.43836,-0.16592 -0.37964,-0.23443 0.0587,-0.0685 0.32694,-0.0957 0.65484,-0.0461 0.32789,0.0496 0.69793,0.17542 0.90559,0.32955 0.20765,0.15412 0.24085,0.3304 0.0795,0.45343 -0.16139,0.12305 -0.50989,0.18808 -0.85768,0.18067 -0.3478,-0.007 -0.67655,-0.0852 -0.81013,-0.16986 -0.13359,-0.0847 -0.0643,-0.16984 0.16648,-0.1883 0.23077,-0.0185 0.61107,0.0332 0.93036,0.14688 0.31928,0.11385 0.55992,0.28627 0.58838,0.44382 0.0284,0.15755 -0.15795,0.2938 -0.45961,0.35533 -0.30166,0.0615 -0.70322,0.0468 -0.98835,-0.0152 -0.28513,-0.0619 -0.43837,-0.16592 -0.37964,-0.23443 0.0587,-0.0685 0.32695,-0.0957 0.65484,-0.0461 0.32789,0.0496 0.69792,0.17542 0.90558,0.32955 0.20766,0.15412 0.24086,0.33039 0.0795,0.45343 -0.1614,0.12305 -0.50989,0.18808 -0.85767,0.18067 -0.3478,-0.007 -0.67656,-0.0852 -0.81015,-0.16987 -0.13358,-0.0847 -0.0643,-0.16984 0.16649,-0.18831 0.23076,-0.0185 0.61108,0.0332 0.93036,0.14689 0.31928,0.11386 0.55992,0.28627 0.58839,0.44383 0.0284,0.15755 -0.15796,0.29379 -0.45962,0.35533 -0.30166,0.0615 -0.70321,0.0468 -0.98835,-0.0152 -0.28513,-0.0619 -0.43837,-0.16591 -0.37963,-0.23442 0.0587,-0.0685 0.32694,-0.0957 0.65483,-0.0461 0.3279,0.0496 0.69793,0.17542 0.90559,0.32955 0.20766,0.15412 0.24086,0.3304 0.0795,0.45344 -0.16141,0.12304 -0.50989,0.18807 -0.85768,0.18066 -0.3478,-0.007 -0.67655,-0.0852 -0.81015,-0.16986 -0.13358,-0.0847 -0.0643,-0.16984 0.1665,-0.18831 0.23076,-0.0185 0.61107,0.0332 0.93035,0.14689 0.31929,0.11385 0.55992,0.28627 0.58839,0.44382 0.0284,0.15755 -0.15796,0.2938 -0.45962,0.35533 -0.30166,0.0615 -0.70321,0.0468 -0.98834,-0.0152 -0.28514,-0.0619 -0.43837,-0.16592 -0.37964,-0.23443 0.0587,-0.0685 0.32694,-0.0957 0.65484,-0.0461 0.32788,0.0496 0.69792,0.17542 0.90558,0.32955 0.20766,0.15412 0.24086,0.33039 0.0795,0.45343 -0.1614,0.12305 -0.50989,0.18808 -0.85768,0.18067 -0.3478,-0.007 -0.67655,-0.0852 -0.81014,-0.16987 -0.13358,-0.0847 -0.0643,-0.16984 0.16649,-0.18831 0.23076,-0.0185 0.61107,0.0332 0.93036,0.14689 0.31927,0.11386 0.55991,0.28628 0.58838,0.44383 0.0285,0.15755 -0.15796,0.29379 -0.45962,0.35533 -0.30165,0.0615 -0.70321,0.0468 -0.98834,-0.0152 -0.28513,-0.0619 -0.43837,-0.16591 -0.37963,-0.23442 0.0587,-0.0685 0.32694,-0.0957 0.65482,-0.0461 0.32789,0.0496 0.69794,0.17541 0.9056,0.32954 0.20765,0.15413 0.24084,0.3304 0.0795,0.45344 -0.1614,0.12304 -0.50989,0.18807 -0.85767,0.18066 -0.3478,-0.007 -0.67656,-0.0852 -0.81015,-0.16986 -0.13359,-0.0847 -0.0643,-0.16984 0.16648,-0.18831 0.23077,-0.0185 0.61109,0.0332 0.93037,0.14689 0.31928,0.11385 0.55991,0.28627 0.58838,0.44382 0.0285,0.15756 -0.15795,0.2938 -0.45961,0.35534 -0.30167,0.0615 -0.70322,0.0468 -0.98835,-0.0152 -0.28513,-0.0619 -0.43836,-0.16592 -0.37963,-0.23443 0.0587,-0.0685 0.32693,-0.0957 0.65482,-0.0461 0.3279,0.0495 0.69794,0.17542 0.9056,0.32955 0.20766,0.15413 0.24085,0.3304 0.0795,0.45343 -0.1614,0.12305 -0.5099,0.18808 -0.85769,0.18067 -0.34779,-0.007 -0.67654,-0.0852 -0.81013,-0.16987 -0.1336,-0.0847 -0.0643,-0.16984 0.16648,-0.1883 0.23077,-0.0185 0.61107,0.0332 0.93037,0.14689 0.31927,0.11385 0.5599,0.28627 0.58837,0.44382 0.0284,0.15755 -0.15795,0.29379 -0.45961,0.35533 -0.30166,0.0615 -0.70322,0.0468 -0.98835,-0.0152 -0.28513,-0.0619 -0.43836,-0.16592 -0.37964,-0.23443 0.0587,-0.0685 0.32694,-0.0957 0.65484,-0.0461 0.32789,0.0495 0.69793,0.17541 0.90559,0.32954 0.20766,0.15413 0.24085,0.3304 0.0795,0.45344 -0.16139,0.12304 -0.50989,0.18807 -0.85768,0.18066 -0.34778,-0.007 -0.67654,-0.0852 -0.81013,-0.16986 -0.13359,-0.0847 -0.0643,-0.16984 0.16648,-0.18831 0.23077,-0.0185 0.61107,0.0332 0.93036,0.14689 0.31928,0.11385 0.55992,0.28627 0.58839,0.44382 0.0284,0.15756 -0.15795,0.2938 -0.45962,0.35534 -0.30166,0.0615 -0.70322,0.0468 -0.98835,-0.0152 -0.28512,-0.0619 -0.43837,-0.16592 -0.37963,-0.23443 0.0587,-0.0685 0.32694,-0.0957 0.65483,-0.0461 0.3279,0.0495 0.69793,0.17542 0.90559,0.32955 0.20766,0.15413 0.24085,0.3304 0.0795,0.45343 -0.1614,0.12305 -0.50988,0.18808 -0.85767,0.18067 -0.3478,-0.007 -0.67656,-0.0852 -0.81014,-0.16987 -0.13359,-0.0847 -0.0643,-0.16984 0.16648,-0.1883 0.23077,-0.0185 0.61108,0.0332 0.93036,0.14689 0.31929,0.11385 0.55992,0.28627 0.58839,0.44382 0.0284,0.15755 -0.15795,0.29379 -0.45961,0.35533 -0.30167,0.0615 -0.70322,0.0468 -0.98836,-0.0152 -0.28513,-0.0619 -0.43836,-0.16592 -0.37963,-0.23443 0.0587,-0.0685 0.32694,-0.0957 0.65484,-0.0461 0.32789,0.0495 0.69792,0.17541 0.90558,0.32955 0.20766,0.15413 0.24086,0.33039 0.0795,0.45343 -0.1614,0.12304 -0.50989,0.18807 -0.85768,0.18066"
       title="t+cos(3*t) 3*sin(3*t)"
       id="path2123"
       inkscape:connector-curvature="0" />
    <circle
       r="2.1675894"
       cy="104.71004"
       cx="227.2821"
       id="path914"
       style="color:#000000;clip-rule:nonzero;display:inline;overflow:visible;visibility:visible;opacity:1;isolation:auto;mix-blend-mode:normal;color-interpolation:sRGB;color-interpolation-filters:linearRGB;solid-color:#000000;solid-opacity:1;fill:#d7eef3;fill-opacity:1;fill-rule:nonzero;stroke:#000000;stroke-width:0.14579999;stroke-linecap:butt;stroke-linejoin:miter;stroke-miterlimit:4;stroke-dasharray:none;stroke-dashoffset:0;stroke-opacity:1;color-rendering:auto;image-rendering:auto;shape-rendering:auto;text-rendering:auto;enable-background:accumulate" />
    <path
       id="path2169"
       title="t+cos(3*t) 3*sin(3*t)"
       d="m 226.10182,105.59582 c -0.21656,-0.19959 -0.38171,-0.43287 -0.41895,-0.5613 -0.0372,-0.12843 0.0546,-0.14346 0.21146,-0.0259 0.15688,0.11759 0.36941,0.36323 0.50818,0.61412 0.13876,0.25089 0.1947,0.49478 0.12429,0.6104 -0.0704,0.11563 -0.26529,0.0974 -0.49137,-0.0327 -0.22609,-0.13005 -0.47276,-0.36432 -0.619,-0.56323 -0.14625,-0.19891 -0.18513,-0.35054 -0.10937,-0.36098 0.0758,-0.0104 0.2613,0.12262 0.44167,0.33763 0.18037,0.215 0.34459,0.50195 0.38987,0.7158 0.0453,0.21384 -0.0326,0.34396 -0.20422,0.33139 -0.17158,-0.0126 -0.42936,-0.16665 -0.646,-0.36616 -0.21665,-0.19952 -0.38171,-0.43288 -0.41895,-0.56131 -0.0372,-0.12842 0.0546,-0.14346 0.21146,-0.0259 0.15688,0.11759 0.36941,0.36322 0.50818,0.61411 0.13876,0.25089 0.1947,0.49478 0.12429,0.61041 -0.0704,0.11563 -0.26529,0.0974 -0.49138,-0.0327 -0.22608,-0.13005 -0.47275,-0.36432 -0.61899,-0.56323 -0.14625,-0.19892 -0.18513,-0.35055 -0.10937,-0.36099 0.0758,-0.0104 0.2613,0.12262 0.44167,0.33763 0.18037,0.21501 0.34459,0.50196 0.38987,0.7158 0.0453,0.21384 -0.0327,0.34396 -0.20423,0.33139 -0.17157,-0.0126 -0.42935,-0.16664 -0.64599,-0.36616 -0.21665,-0.19952 -0.38171,-0.43288 -0.41895,-0.5613 -0.0372,-0.12843 0.0546,-0.14346 0.21146,-0.0259 0.15688,0.11759 0.36941,0.36323 0.50818,0.61412 0.13876,0.25089 0.1947,0.49477 0.12429,0.6104 -0.0704,0.11563 -0.26529,0.0974 -0.49138,-0.0327 -0.22608,-0.13005 -0.47275,-0.36432 -0.619,-0.56323 -0.14624,-0.19891 -0.18512,-0.35054 -0.10936,-0.36098 0.0758,-0.0104 0.2613,0.12262 0.44167,0.33762 0.18037,0.21501 0.34459,0.50196 0.38987,0.71581 0.0453,0.21384 -0.0326,0.34396 -0.20423,0.33139 -0.17157,-0.0126 -0.42935,-0.16665 -0.64599,-0.36617 -0.21665,-0.19951 -0.38171,-0.43287 -0.41896,-0.5613 -0.0372,-0.12842 0.0546,-0.14346 0.21147,-0.0259 0.15688,0.11758 0.36941,0.36322 0.50818,0.61411 0.13876,0.25089 0.1947,0.49478 0.12429,0.61041 -0.0704,0.11563 -0.26529,0.0974 -0.49138,-0.0327 -0.22608,-0.13005 -0.47275,-0.36433 -0.619,-0.56324 -0.14624,-0.19891 -0.18513,-0.35054 -0.10936,-0.36098 0.0758,-0.0104 0.2613,0.12262 0.44167,0.33763 0.18037,0.215 0.34459,0.50196 0.38987,0.7158 0.0453,0.21384 -0.0327,0.34396 -0.20423,0.33139 -0.17157,-0.0126 -0.42935,-0.16665 -0.64599,-0.36616 -0.21665,-0.19952 -0.38172,-0.43288 -0.41896,-0.5613 -0.0372,-0.12843 0.0546,-0.14347 0.21147,-0.0259 0.15688,0.11759 0.36941,0.36322 0.50818,0.61411 0.13876,0.25089 0.1947,0.49478 0.12429,0.61041 -0.0704,0.11563 -0.26529,0.0974 -0.49138,-0.0327 -0.22608,-0.13005 -0.47275,-0.36432 -0.619,-0.56323 -0.14624,-0.19891 -0.18513,-0.35054 -0.10936,-0.36098 0.0758,-0.0104 0.2613,0.12262 0.44167,0.33762 0.18037,0.21501 0.34459,0.50196 0.38987,0.7158 0.0453,0.21385 -0.0326,0.34396 -0.20423,0.33139 -0.17157,-0.0126 -0.42935,-0.16664 -0.646,-0.36616 -0.21664,-0.19952 -0.38171,-0.43287 -0.41895,-0.5613 -0.0372,-0.12843 0.0546,-0.14346 0.21146,-0.0259 0.15689,0.11758 0.36942,0.36322 0.50819,0.61411 0.13876,0.25089 0.1947,0.49478 0.12429,0.61041 -0.0704,0.11562 -0.26529,0.0974 -0.49138,-0.0327 -0.22608,-0.13006 -0.47275,-0.36433 -0.619,-0.56324 -0.14624,-0.19891 -0.18513,-0.35054 -0.10936,-0.36098 0.0758,-0.0104 0.2613,0.12262 0.44167,0.33763 0.18037,0.215 0.34459,0.50195 0.38986,0.7158 0.0453,0.21384 -0.0326,0.34396 -0.20422,0.33139 -0.17157,-0.0126 -0.42935,-0.16665 -0.646,-0.36616 -0.21664,-0.19952 -0.38171,-0.43288 -0.41895,-0.56131 -0.0372,-0.12842 0.0546,-0.14346 0.21146,-0.0259 0.15689,0.11759 0.36942,0.36322 0.50818,0.61411 0.13877,0.25089 0.19471,0.49478 0.1243,0.61041 -0.0704,0.11563 -0.26529,0.0974 -0.49138,-0.0327 -0.22609,-0.13005 -0.47275,-0.36432 -0.619,-0.56323 -0.14624,-0.19891 -0.18513,-0.35055 -0.10937,-0.36099 0.0758,-0.0104 0.26131,0.12262 0.44168,0.33763 0.18037,0.21501 0.34459,0.50196 0.38986,0.7158 0.0453,0.21385 -0.0326,0.34396 -0.20422,0.33139 -0.17157,-0.0126 -0.42935,-0.16664 -0.646,-0.36616 -0.21664,-0.19952 -0.38171,-0.43288 -0.41895,-0.5613 -0.0372,-0.12843 0.0546,-0.14346 0.21146,-0.0259 0.15689,0.11759 0.36942,0.36323 0.50818,0.61412 0.13877,0.25089 0.19471,0.49477 0.1243,0.6104 -0.0704,0.11563 -0.26529,0.0974 -0.49138,-0.0327 -0.22609,-0.13005 -0.47275,-0.36432 -0.619,-0.56323 -0.14624,-0.19891 -0.18513,-0.35054 -0.10937,-0.36098 0.0758,-0.0104 0.26131,0.12262 0.44168,0.33762 0.18037,0.21501 0.34459,0.50196 0.38986,0.71581 0.0453,0.21384 -0.0327,0.34396 -0.20422,0.33139 -0.17157,-0.0126 -0.42935,-0.16665 -0.646,-0.36617 -0.21664,-0.19951 -0.38171,-0.43287 -0.41895,-0.5613 -0.0372,-0.12842 0.0546,-0.14346 0.21146,-0.0259 0.15689,0.11758 0.36942,0.36322 0.50818,0.61411 0.13877,0.25089 0.19471,0.49478 0.12429,0.61041 -0.0704,0.11563 -0.26528,0.0974 -0.49137,-0.0327 -0.22609,-0.13005 -0.47275,-0.36432 -0.619,-0.56324 -0.14624,-0.19891 -0.18513,-0.35054 -0.10937,-0.36098 0.0758,-0.0104 0.26131,0.12262 0.44168,0.33763 0.18037,0.21501 0.34459,0.50196 0.38986,0.7158 0.0453,0.21384 -0.0326,0.34396 -0.20422,0.33139 -0.17157,-0.0126 -0.42935,-0.16664 -0.646,-0.36616"
       style="color:#000000;clip-rule:nonzero;display:inline;overflow:visible;visibility:visible;opacity:1;isolation:auto;mix-blend-mode:normal;color-interpolation:sRGB;color-interpolation-filters:linearRGB;solid-color:#000000;solid-opacity:1;fill:none;fill-opacity:1;fill-rule:nonzero;stroke:#000000;stroke-width:0.06783254;stroke-linecap:butt;stroke-linejoin:miter;stroke-miterlimit:4;stroke-dasharray:none;stroke-dashoffset:0;stroke-opacity:1;color-rendering:auto;image-rendering:auto;shape-rendering:auto;text-rendering:auto;enable-background:accumulate"
       inkscape:connector-curvature="0" />
    <path
       style="color:#000000;clip-rule:nonzero;display:inline;overflow:visible;visibility:visible;opacity:1;isolation:auto;mix-blend-mode:normal;color-interpolation:sRGB;color-interpolation-filters:linearRGB;solid-color:#000000;solid-opacity:1;fill:none;fill-opacity:1;fill-rule:nonzero;stroke:#000000;stroke-width:0.06783254;stroke-linecap:butt;stroke-linejoin:miter;stroke-miterlimit:4;stroke-dasharray:none;stroke-dashoffset:0;stroke-opacity:1;color-rendering:auto;image-rendering:auto;shape-rendering:auto;text-rendering:auto;enable-background:accumulate"
       d="m 239.50182,108.01265 c -0.11852,0.32206 -0.31546,0.60706 -0.47871,0.64903 -0.16324,0.042 -0.28026,-0.16497 -0.29505,-0.48147 -0.0148,-0.3165 0.0709,-0.71325 0.171,-0.91865 0.10008,-0.2054 0.20132,-0.19973 0.2071,0.006 0.006,0.20545 -0.0884,0.59067 -0.24193,0.87875 -0.15354,0.28808 -0.35538,0.44985 -0.48976,0.36603 -0.13437,-0.0838 -0.19157,-0.40696 -0.15758,-0.74876 0.034,-0.34179 0.15267,-0.67013 0.24688,-0.76167 0.0942,-0.0916 0.15116,0.0626 0.1054,0.34701 -0.0458,0.28443 -0.19378,0.67125 -0.36575,0.88271 -0.17198,0.21146 -0.35493,0.22552 -0.44645,0.0266 -0.0915,-0.19892 -0.086,-0.5933 -0.0133,-0.91276 0.0726,-0.31946 0.20201,-0.53367 0.27158,-0.49958 0.0696,0.0341 0.0688,0.31327 -0.0272,0.6346 -0.096,0.32134 -0.28194,0.65299 -0.45299,0.75621 -0.17104,0.10322 -0.31415,-0.0338 -0.35498,-0.32063 -0.0408,-0.28686 0.0214,-0.69731 0.11703,-0.94999 0.0956,-0.25268 0.21186,-0.32342 0.24157,-0.1699 0.0297,0.15352 -0.0339,0.51641 -0.17169,0.82728 -0.13779,0.31087 -0.34025,0.53852 -0.49112,0.51739 -0.15087,-0.0211 -0.23891,-0.29089 -0.22846,-0.62593 0.0105,-0.33503 0.11521,-0.70407 0.21482,-0.85511 0.0996,-0.15103 0.18084,-0.0695 0.16116,0.18013 -0.0197,0.24962 -0.14233,0.64291 -0.30741,0.89745 -0.16508,0.25453 -0.36034,0.34424 -0.47469,0.20044 -0.11435,-0.1438 -0.13997,-0.509 -0.085,-0.84553 0.055,-0.33654 0.18196,-0.61264 0.26603,-0.64173 0.0841,-0.0291 0.11338,0.19173 0.0419,0.50036 -0.0715,0.30863 -0.24089,0.67464 -0.41488,0.83505 -0.17399,0.16041 -0.33934,0.098 -0.40606,-0.14921 -0.0667,-0.24719 -0.0315,-0.65684 0.0548,-0.948 0.0863,-0.29116 0.2121,-0.43609 0.26333,-0.34039 0.0512,0.0957 0.0191,0.42282 -0.0992,0.74491 -0.11838,0.32209 -0.31547,0.60706 -0.47871,0.64903 -0.16325,0.042 -0.28027,-0.16498 -0.29506,-0.48148 -0.0148,-0.3165 0.0709,-0.71324 0.171,-0.91864 0.10008,-0.20541 0.20132,-0.19973 0.20711,0.006 0.006,0.20545 -0.0884,0.59067 -0.24193,0.87875 -0.15355,0.28807 -0.35539,0.44984 -0.48976,0.36603 -0.13438,-0.0838 -0.19158,-0.40696 -0.15759,-0.74876 0.034,-0.3418 0.15267,-0.67013 0.24688,-0.76168 0.0942,-0.0915 0.15117,0.0626 0.10541,0.34702 -0.0458,0.28443 -0.19378,0.67124 -0.36576,0.8827 -0.17198,0.21147 -0.35493,0.22553 -0.44645,0.0266 -0.0915,-0.19892 -0.086,-0.5933 -0.0133,-0.91275 0.0726,-0.31946 0.20201,-0.53368 0.27158,-0.49958 0.0696,0.0341 0.0688,0.31327 -0.0272,0.6346 -0.096,0.32133 -0.28194,0.65299 -0.45298,0.75621 -0.17105,0.10322 -0.31416,-0.0338 -0.35498,-0.32063 -0.0408,-0.28686 0.0214,-0.69731 0.11702,-0.94999 0.0956,-0.25268 0.21187,-0.32342 0.24158,-0.1699 0.0297,0.15352 -0.0339,0.51641 -0.1717,0.82728 -0.13779,0.31087 -0.34025,0.53852 -0.49112,0.51738 -0.15087,-0.0211 -0.23891,-0.29089 -0.22845,-0.62592 0.0104,-0.33503 0.11521,-0.70408 0.21481,-0.85511 0.0996,-0.15104 0.18084,-0.0695 0.16116,0.18012 -0.0197,0.24962 -0.14232,0.64292 -0.3074,0.89745 -0.16508,0.25454 -0.36034,0.34424 -0.47469,0.20044 -0.11436,-0.14379 -0.13997,-0.50899 -0.085,-0.84553 0.055,-0.33654 0.18196,-0.61264 0.26603,-0.64172 0.0841,-0.0291 0.11338,0.19173 0.0419,0.50035 -0.0715,0.30863 -0.24088,0.67465 -0.41487,0.83506 -0.174,0.1604 -0.33935,0.098 -0.40606,-0.14921 -0.0667,-0.24719 -0.0315,-0.65684 0.0548,-0.948 0.0863,-0.29117 0.2121,-0.4361 0.26333,-0.34039 0.0512,0.0957 0.0191,0.42282 -0.0992,0.74491 -0.11838,0.32209 -0.31547,0.60706 -0.47871,0.64902 -0.16324,0.042 -0.28027,-0.16497 -0.29506,-0.48147 -0.0148,-0.3165 0.0709,-0.71325 0.17101,-0.91865 0.10007,-0.2054 0.20132,-0.19973 0.2071,0.006 0.006,0.20545 -0.0884,0.59067 -0.24193,0.87875 -0.15354,0.28808 -0.35539,0.44985 -0.48976,0.36603 -0.13438,-0.0838 -0.19157,-0.40696 -0.15758,-0.74875 0.034,-0.3418 0.15266,-0.67014 0.24687,-0.76168 0.0942,-0.0915 0.15117,0.0626 0.10541,0.34701 -0.0458,0.28443 -0.19378,0.67125 -0.36576,0.88271 -0.17198,0.21146 -0.35493,0.22552 -0.44645,0.0266 -0.0915,-0.19892 -0.086,-0.5933 -0.0133,-0.91276 0.0726,-0.31946 0.202,-0.53367 0.27158,-0.49958 0.0696,0.0341 0.0688,0.31327 -0.0272,0.63461 -0.096,0.32133 -0.28194,0.65298 -0.45298,0.7562 -0.17104,0.10323 -0.31415,-0.0338 -0.35498,-0.32063 -0.0408,-0.28686 0.0214,-0.69731 0.11702,-0.94999 0.0956,-0.25268 0.21187,-0.32342 0.24158,-0.1699 0.0297,0.15352 -0.0339,0.51642 -0.1717,0.82729 -0.13778,0.31086 -0.34024,0.53852 -0.49111,0.51738 -0.15088,-0.0211 -0.23891,-0.29089 -0.22846,-0.62592 0.0105,-0.33504 0.11521,-0.70408 0.21481,-0.85512 0.0996,-0.15103 0.18085,-0.0695 0.16117,0.18013 -0.0197,0.24962 -0.14233,0.64291 -0.30741,0.89745 -0.16508,0.25454 -0.36034,0.34424 -0.47469,0.20044 -0.11435,-0.1438 -0.13997,-0.50899 -0.085,-0.84553 0.055,-0.33654 0.18195,-0.61264 0.26603,-0.64172 0.0841,-0.0291 0.11337,0.19172 0.0419,0.50035 -0.0715,0.30863 -0.24088,0.67464 -0.41487,0.83505 -0.17399,0.16041 -0.33935,0.098 -0.40606,-0.14921 -0.0667,-0.24719 -0.0315,-0.65684 0.0548,-0.948 0.0863,-0.29116 0.2121,-0.43609 0.26333,-0.34039 0.0512,0.0957 0.0191,0.42282 -0.0993,0.74491"
       title="t+cos(3*t) 3*sin(3*t)"
       id="path1627"
       inkscape:connector-curvature="0" />
    <circle
       r="2.4084327"
       cy="108.01192"
       cx="238.69196"
       id="path914-3"
       style="color:#000000;clip-rule:nonzero;display:inline;overflow:visible;visibility:visible;opacity:1;isolation:auto;mix-blend-mode:normal;color-interpolation:sRGB;color-interpolation-filters:linearRGB;solid-color:#000000;solid-opacity:1;fill:#d7eef3;fill-opacity:1;fill-rule:nonzero;stroke:#000000;stroke-width:0.162;stroke-linecap:butt;stroke-linejoin:miter;stroke-miterlimit:4;stroke-dasharray:none;stroke-dashoffset:0;stroke-opacity:1;color-rendering:auto;image-rendering:auto;shape-rendering:auto;text-rendering:auto;enable-background:accumulate" />
    <circle
       r="2.4084327"
       cy="112.9256"
       cx="217.71428"
       id="path914-35"
       style="color:#000000;clip-rule:nonzero;display:inline;overflow:visible;visibility:visible;opacity:1;isolation:auto;mix-blend-mode:normal;color-interpolation:sRGB;color-interpolation-filters:linearRGB;solid-color:#000000;solid-opacity:1;fill:#d7eef3;fill-opacity:1;fill-rule:nonzero;stroke:#000000;stroke-width:0.162;stroke-linecap:butt;stroke-linejoin:miter;stroke-miterlimit:4;stroke-dasharray:none;stroke-dashoffset:0;stroke-opacity:1;color-rendering:auto;image-rendering:auto;shape-rendering:auto;text-rendering:auto;enable-background:accumulate" />
    <path
       id="path1997"
       title="t+cos(3*t) 3*sin(3*t)"
       d="m 239.29914,109.27315 c 0.33135,-0.10586 0.62463,-0.27353 0.7287,-0.39263 0.10409,-0.11911 0.0133,-0.18109 -0.21309,-0.13335 -0.22654,0.0477 -0.57663,0.20497 -0.85051,0.4047 -0.27387,0.19971 -0.45571,0.43329 -0.43829,0.59244 0.0174,0.15914 0.23483,0.2369 0.54158,0.21037 0.30674,-0.0266 0.68763,-0.15456 0.94349,-0.29481 0.25587,-0.14024 0.37331,-0.28341 0.29755,-0.33244 -0.0758,-0.049 -0.34067,9.5e-4 -0.64106,0.14145 -0.30039,0.14046 -0.61952,0.36613 -0.77492,0.57282 -0.15541,0.20668 -0.13722,0.38512 0.0525,0.45732 0.18969,0.0722 0.54234,0.0357 0.87375,-0.07 0.33141,-0.10574 0.62463,-0.27353 0.7287,-0.39264 0.10409,-0.1191 0.0133,-0.18109 -0.21309,-0.13334 -0.22653,0.0477 -0.57663,0.20497 -0.85051,0.4047 -0.27387,0.19971 -0.45571,0.43328 -0.43829,0.59244 0.0174,0.15914 0.23483,0.2369 0.54158,0.21037 0.30674,-0.0266 0.68764,-0.15456 0.94349,-0.29481 0.25587,-0.14024 0.37331,-0.28341 0.29755,-0.33245 -0.0758,-0.049 -0.34067,9.6e-4 -0.64106,0.14146 -0.30039,0.14046 -0.61952,0.36614 -0.77492,0.57282 -0.15541,0.20668 -0.13722,0.38512 0.0525,0.45732 0.18969,0.0722 0.54234,0.0357 0.87376,-0.07 0.3314,-0.10573 0.62462,-0.27352 0.72869,-0.39263 0.10409,-0.11911 0.0133,-0.18109 -0.21308,-0.13334 -0.22654,0.0477 -0.57664,0.20497 -0.85051,0.40469 -0.27387,0.19972 -0.45571,0.43329 -0.4383,0.59244 0.0174,0.15914 0.23483,0.23691 0.54158,0.21037 0.30674,-0.0265 0.68764,-0.15455 0.94349,-0.2948 0.25587,-0.14024 0.37331,-0.28341 0.29755,-0.33244 -0.0758,-0.049 -0.34067,9.6e-4 -0.64106,0.14144 -0.30039,0.14047 -0.61952,0.36615 -0.77492,0.57283 -0.15541,0.20668 -0.13722,0.38511 0.0525,0.45732 0.18969,0.0722 0.54234,0.0357 0.87376,-0.07 0.3314,-0.10574 0.62462,-0.27352 0.72869,-0.39263 0.10409,-0.11911 0.0133,-0.18109 -0.21308,-0.13335 -0.22654,0.0477 -0.57664,0.20499 -0.85051,0.4047 -0.27387,0.19971 -0.45571,0.43329 -0.4383,0.59244 0.0174,0.15915 0.23483,0.23692 0.54157,0.21037 0.30675,-0.0266 0.68765,-0.15455 0.9435,-0.2948 0.25587,-0.14025 0.37331,-0.28342 0.29755,-0.33244 -0.0758,-0.049 -0.34067,9.5e-4 -0.64106,0.14144 -0.30039,0.14047 -0.61951,0.36614 -0.77492,0.57282 -0.1554,0.20669 -0.13722,0.38512 0.0525,0.45733 0.18969,0.0722 0.54234,0.0357 0.87375,-0.07 0.33141,-0.10574 0.62463,-0.27353 0.7287,-0.39263 0.10409,-0.11911 0.0133,-0.1811 -0.21308,-0.13335 -0.22654,0.0477 -0.57664,0.20498 -0.85051,0.4047 -0.27387,0.19972 -0.45571,0.43328 -0.4383,0.59244 0.0174,0.15915 0.23483,0.23691 0.54158,0.21037 0.30675,-0.0266 0.68764,-0.15456 0.9435,-0.2948 0.25586,-0.14025 0.3733,-0.28342 0.29754,-0.33245 -0.0758,-0.049 -0.34067,9.6e-4 -0.64106,0.14146 -0.30039,0.14045 -0.61951,0.36613 -0.77492,0.57281 -0.1554,0.20669 -0.13722,0.38512 0.0525,0.45733 0.1897,0.0722 0.54235,0.0357 0.87375,-0.07 0.33142,-0.10573 0.62463,-0.27352 0.7287,-0.39263 0.10409,-0.11911 0.0133,-0.18108 -0.21308,-0.13334 -0.22654,0.0477 -0.57664,0.20498 -0.85051,0.40469 -0.27387,0.19973 -0.45571,0.43329 -0.4383,0.59244 0.0174,0.15916 0.23484,0.23692 0.54158,0.21037 0.30675,-0.0265 0.68764,-0.15455 0.9435,-0.29479 0.25586,-0.14025 0.37331,-0.28342 0.29754,-0.33245 -0.0758,-0.049 -0.34066,9.6e-4 -0.64106,0.14145 -0.30039,0.14047 -0.61951,0.36614 -0.77492,0.57282 -0.1554,0.20669 -0.13722,0.38512 0.0525,0.45733 0.18969,0.0722 0.54234,0.0357 0.87374,-0.07 0.33142,-0.10575 0.62464,-0.27353 0.72871,-0.39264 0.10408,-0.1191 0.0133,-0.18108 -0.21309,-0.13335 -0.22654,0.0477 -0.57664,0.20499 -0.85051,0.4047 -0.27387,0.19972 -0.45571,0.4333 -0.4383,0.59244 0.0174,0.15915 0.23484,0.23692 0.54158,0.21037 0.30675,-0.0265 0.68764,-0.15454 0.9435,-0.29479 0.25587,-0.14026 0.37331,-0.28342 0.29754,-0.33245 -0.0758,-0.049 -0.34066,9.6e-4 -0.64106,0.14145 -0.30039,0.14047 -0.61951,0.36614 -0.77492,0.57282 -0.1554,0.20668 -0.13721,0.38511 0.0525,0.45732 0.18969,0.0722 0.54234,0.0357 0.87374,-0.07 0.33142,-0.10575 0.62464,-0.27354 0.72871,-0.39263 0.10409,-0.11911 0.0133,-0.18109 -0.21309,-0.13336 -0.22654,0.0477 -0.57664,0.20498 -0.85051,0.4047 -0.27387,0.19972 -0.45571,0.4333 -0.43829,0.59244 0.0174,0.15915 0.23483,0.23692 0.54157,0.21037 0.30675,-0.0266 0.68764,-0.15455 0.9435,-0.2948 0.25587,-0.14025 0.37331,-0.28342 0.29754,-0.33244 -0.0758,-0.049 -0.34066,9.5e-4 -0.64105,0.14145 -0.3004,0.14046 -0.61952,0.36613 -0.77492,0.57282 -0.15541,0.20668 -0.13722,0.38512 0.0525,0.45732 0.18969,0.0722 0.54234,0.0357 0.87374,-0.07 0.33142,-0.10574 0.62464,-0.27353 0.72871,-0.39263 0.10409,-0.1191 0.0133,-0.18109 -0.21309,-0.13335 -0.22653,0.0477 -0.57664,0.20498 -0.85051,0.40471 -0.27387,0.19971 -0.45571,0.43328 -0.43829,0.59243 0.0174,0.15915 0.23483,0.23691 0.54157,0.21038 0.30675,-0.0266 0.68765,-0.15456 0.9435,-0.29481 0.25587,-0.14024 0.37331,-0.28341 0.29755,-0.33245 -0.0758,-0.049 -0.34067,9.6e-4 -0.64106,0.14146 -0.30039,0.14046 -0.61953,0.36613 -0.77492,0.57282 -0.15541,0.20668 -0.13722,0.38512 0.0525,0.45732 0.18969,0.0722 0.54234,0.0357 0.87375,-0.07"
       style="color:#000000;clip-rule:nonzero;display:inline;overflow:visible;visibility:visible;opacity:1;isolation:auto;mix-blend-mode:normal;color-interpolation:sRGB;color-interpolation-filters:linearRGB;solid-color:#000000;solid-opacity:1;fill:none;fill-opacity:1;fill-rule:nonzero;stroke:#000000;stroke-width:0.07343074;stroke-linecap:butt;stroke-linejoin:miter;stroke-miterlimit:4;stroke-dasharray:none;stroke-dashoffset:0;stroke-opacity:1;color-rendering:auto;image-rendering:auto;shape-rendering:auto;text-rendering:auto;enable-background:accumulate"
       inkscape:connector-curvature="0" />
    <path
       style="color:#000000;clip-rule:nonzero;display:inline;overflow:visible;visibility:visible;opacity:1;isolation:auto;mix-blend-mode:normal;color-interpolation:sRGB;color-interpolation-filters:linearRGB;solid-color:#000000;solid-opacity:1;fill:none;fill-opacity:1;fill-rule:nonzero;stroke:#000000;stroke-width:0.0875031;stroke-linecap:butt;stroke-linejoin:miter;stroke-miterlimit:4;stroke-dasharray:none;stroke-dashoffset:0;stroke-opacity:1;color-rendering:auto;image-rendering:auto;shape-rendering:auto;text-rendering:auto;enable-background:accumulate"
       d="m 230.64739,125.90724 c -0.17422,-0.40552 -0.42195,-0.75553 -0.58523,-0.87257 -0.16328,-0.11705 -0.23061,0.005 -0.14265,0.28499 0.088,0.2802 0.32944,0.7032 0.61533,1.02488 0.28589,0.32167 0.60338,0.52311 0.80249,0.48201 0.19911,-0.0411 0.27095,-0.3249 0.20002,-0.70889 -0.0709,-0.38399 -0.2792,-0.84938 -0.4877,-1.15547 -0.20851,-0.30609 -0.40384,-0.43711 -0.4566,-0.33559 -0.0528,0.10152 0.0427,0.42988 0.25695,0.79216 0.2142,0.36227 0.53843,0.73795 0.8187,0.90925 0.28026,0.17131 0.50366,0.12691 0.57185,-0.1212 0.0682,-0.24811 -0.0209,-0.68885 -0.19497,-1.09445 -0.17408,-0.40561 -0.42195,-0.75554 -0.58523,-0.87258 -0.16328,-0.11704 -0.2306,0.005 -0.14265,0.28499 0.088,0.2802 0.32944,0.7032 0.61533,1.02488 0.28589,0.32168 0.60338,0.52312 0.80249,0.48201 0.19911,-0.0411 0.27095,-0.3249 0.20002,-0.70889 -0.0709,-0.38399 -0.2792,-0.84937 -0.4877,-1.15546 -0.20851,-0.3061 -0.40384,-0.43712 -0.4566,-0.3356 -0.0528,0.10152 0.0427,0.42988 0.25695,0.79216 0.2142,0.36227 0.53843,0.73795 0.8187,0.90926 0.28026,0.1713 0.50366,0.1269 0.57185,-0.12121 0.0682,-0.24811 -0.0209,-0.68884 -0.19497,-1.09445 -0.17408,-0.4056 -0.42195,-0.75554 -0.58523,-0.87258 -0.16328,-0.11704 -0.2306,0.005 -0.14265,0.285 0.088,0.2802 0.32944,0.70319 0.61533,1.02487 0.2859,0.32168 0.60338,0.52312 0.80249,0.48202 0.19911,-0.0411 0.27095,-0.3249 0.20002,-0.70889 -0.0709,-0.38399 -0.2792,-0.84938 -0.4877,-1.15547 -0.20851,-0.30609 -0.40384,-0.43712 -0.4566,-0.3356 -0.0528,0.10152 0.0427,0.42989 0.25695,0.79216 0.2142,0.36228 0.53843,0.73795 0.8187,0.90926 0.28027,0.17131 0.50367,0.1269 0.57185,-0.12121 0.0682,-0.24811 -0.0209,-0.68884 -0.19497,-1.09445 -0.17407,-0.4056 -0.42195,-0.75553 -0.58523,-0.87257 -0.16328,-0.11705 -0.2306,0.005 -0.14265,0.28499 0.088,0.2802 0.32944,0.7032 0.61533,1.02488 0.2859,0.32167 0.60338,0.52311 0.80249,0.48201 0.19911,-0.0411 0.27095,-0.3249 0.20002,-0.70889 -0.0709,-0.38399 -0.2792,-0.84938 -0.4877,-1.15547 -0.2085,-0.30609 -0.40384,-0.43711 -0.4566,-0.33559 -0.0528,0.10152 0.0427,0.42988 0.25695,0.79216 0.21421,0.36227 0.53843,0.73795 0.8187,0.90925 0.28027,0.17131 0.50367,0.12691 0.57186,-0.1212 0.0682,-0.24811 -0.0209,-0.68885 -0.19498,-1.09445 -0.17407,-0.40561 -0.42195,-0.75554 -0.58523,-0.87258 -0.16328,-0.11704 -0.2306,0.005 -0.14264,0.28499 0.088,0.2802 0.32943,0.7032 0.61532,1.02488 0.2859,0.32168 0.60339,0.52312 0.8025,0.48201 0.19911,-0.0411 0.27094,-0.3249 0.20001,-0.70889 -0.0709,-0.38399 -0.2792,-0.84937 -0.4877,-1.15546 -0.2085,-0.3061 -0.40384,-0.43712 -0.4566,-0.3356 -0.0528,0.10152 0.0427,0.42988 0.25695,0.79216 0.21421,0.36227 0.53843,0.73795 0.8187,0.90926 0.28027,0.1713 0.50367,0.1269 0.57186,-0.12121 0.0682,-0.24811 -0.0209,-0.68884 -0.19497,-1.09445 -0.17408,-0.4056 -0.42196,-0.75554 -0.58524,-0.87258 -0.16328,-0.11704 -0.2306,0.005 -0.14264,0.285 0.088,0.2802 0.32943,0.70319 0.61532,1.02487 0.2859,0.32168 0.60339,0.52312 0.8025,0.48202 0.19911,-0.0411 0.27094,-0.3249 0.20001,-0.70889 -0.0709,-0.38399 -0.27919,-0.84938 -0.4877,-1.15547 -0.2085,-0.30609 -0.40384,-0.43712 -0.4566,-0.3356 -0.0528,0.10152 0.0427,0.42989 0.25695,0.79216 0.21421,0.36228 0.53843,0.73795 0.8187,0.90926 0.28027,0.17131 0.50367,0.1269 0.57186,-0.12121 0.0682,-0.24811 -0.0209,-0.68884 -0.19497,-1.09445 -0.17408,-0.4056 -0.42196,-0.75553 -0.58524,-0.87257 -0.16328,-0.11705 -0.2306,0.005 -0.14264,0.28499 0.088,0.2802 0.32943,0.7032 0.61533,1.02488 0.28589,0.32167 0.60338,0.52311 0.80249,0.48201 0.19911,-0.0411 0.27094,-0.3249 0.20001,-0.70889 -0.0709,-0.38399 -0.27919,-0.84938 -0.4877,-1.15547 -0.2085,-0.30609 -0.40383,-0.43711 -0.4566,-0.33559 -0.0528,0.10152 0.0427,0.42988 0.25696,0.79216 0.2142,0.36227 0.53843,0.73795 0.81869,0.90925 0.28027,0.17131 0.50367,0.12691 0.57186,-0.1212 0.0682,-0.24811 -0.0209,-0.68885 -0.19497,-1.09445 -0.17408,-0.40561 -0.42196,-0.75554 -0.58524,-0.87258 -0.16328,-0.11704 -0.2306,0.005 -0.14264,0.28499 0.088,0.2802 0.32943,0.7032 0.61533,1.02488 0.28589,0.32168 0.60338,0.52312 0.80249,0.48201 0.19911,-0.0411 0.27095,-0.3249 0.20001,-0.70889 -0.0709,-0.38399 -0.27919,-0.84937 -0.4877,-1.15546 -0.2085,-0.3061 -0.40383,-0.43712 -0.4566,-0.3356 -0.0528,0.10152 0.0427,0.42988 0.25696,0.79216 0.2142,0.36227 0.53843,0.73795 0.81869,0.90926 0.28027,0.1713 0.50367,0.1269 0.57186,-0.12121 0.0682,-0.24811 -0.0209,-0.68884 -0.19497,-1.09445 -0.17408,-0.4056 -0.42195,-0.75554 -0.58523,-0.87258 -0.16328,-0.11704 -0.23061,0.005 -0.14265,0.285 0.088,0.2802 0.32943,0.70319 0.61533,1.02487 0.28589,0.32168 0.60338,0.52312 0.80249,0.48202 0.19911,-0.0411 0.27095,-0.3249 0.20002,-0.70889 -0.0709,-0.38399 -0.2792,-0.84938 -0.48771,-1.15547 -0.2085,-0.30609 -0.40383,-0.43712 -0.4566,-0.3356 -0.0528,0.10152 0.0427,0.42989 0.25696,0.79216 0.2142,0.36228 0.53843,0.73795 0.81869,0.90926 0.28027,0.17131 0.50367,0.1269 0.57186,-0.12121 0.0682,-0.24811 -0.0209,-0.68884 -0.19497,-1.09445"
       title="t+cos(3*t) 3*sin(3*t)"
       id="path2037"
       inkscape:connector-curvature="0" />
    <circle
       r="2.6760364"
       cy="118.87872"
       cx="243.22769"
       id="path914-6"
       style="color:#000000;clip-rule:nonzero;display:inline;overflow:visible;visibility:visible;opacity:1;isolation:auto;mix-blend-mode:normal;color-interpolation:sRGB;color-interpolation-filters:linearRGB;solid-color:#000000;solid-opacity:1;fill:#d7eef3;fill-opacity:1;fill-rule:nonzero;stroke:#000000;stroke-width:0.18000001;stroke-linecap:butt;stroke-linejoin:miter;stroke-miterlimit:4;stroke-dasharray:none;stroke-dashoffset:0;stroke-opacity:1;color-rendering:auto;image-rendering:auto;shape-rendering:auto;text-rendering:auto;enable-background:accumulate" />
    <circle
       r="2.9733737"
       cy="125.6823"
       cx="230.56548"
       id="path914-7"
       style="color:#000000;clip-rule:nonzero;display:inline;overflow:visible;visibility:visible;opacity:1;isolation:auto;mix-blend-mode:normal;color-interpolation:sRGB;color-interpolation-filters:linearRGB;solid-color:#000000;solid-opacity:1;fill:#d7eef3;fill-opacity:1;fill-rule:nonzero;stroke:#000000;stroke-width:0.2;stroke-linecap:butt;stroke-linejoin:miter;stroke-miterlimit:4;stroke-dasharray:none;stroke-dashoffset:0;stroke-opacity:1;color-rendering:auto;image-rendering:auto;shape-rendering:auto;text-rendering:auto;enable-background:accumulate" />
    <circle
       transform="scale(1,-1)"
       r="2.6760364"
       cy="-123.98138"
       cx="216.29688"
       id="path914-5"
       style="color:#000000;clip-rule:nonzero;display:inline;overflow:visible;visibility:visible;opacity:1;isolation:auto;mix-blend-mode:normal;color-interpolation:sRGB;color-interpolation-filters:linearRGB;solid-color:#000000;solid-opacity:1;fill:#d7eef3;fill-opacity:1;fill-rule:nonzero;stroke:#000000;stroke-width:0.18000001;stroke-linecap:butt;stroke-linejoin:miter;stroke-miterlimit:4;stroke-dasharray:none;stroke-dashoffset:0;stroke-opacity:1;color-rendering:auto;image-rendering:auto;shape-rendering:auto;text-rendering:auto;enable-background:accumulate" />
    <g
       id="g4653"
       transform="translate(-0.28348214,0.37797619)">
      <path
         inkscape:connector-curvature="0"
         id="path4591"
         d="m 219.34395,115.92674 h 20.71339"
         style="fill:none;fill-rule:evenodd;stroke:#9b9b9b;stroke-width:0.10540926;stroke-linecap:butt;stroke-linejoin:miter;stroke-miterlimit:4;stroke-dasharray:0.31622776, 0.10540925;stroke-dashoffset:0;stroke-opacity:1" />
      <circle
         r="0.78399503"
         cy="115.92291"
         cx="229.57504"
         id="path2199"
         style="color:#000000;clip-rule:nonzero;display:inline;overflow:visible;visibility:visible;opacity:1;isolation:auto;mix-blend-mode:normal;color-interpolation:sRGB;color-interpolation-filters:linearRGB;solid-color:#000000;solid-opacity:1;fill:#000000;fill-opacity:1;fill-rule:nonzero;stroke:#000000;stroke-width:0.10202958;stroke-linecap:butt;stroke-linejoin:miter;stroke-miterlimit:4;stroke-dasharray:none;stroke-dashoffset:0;stroke-opacity:1;color-rendering:auto;image-rendering:auto;shape-rendering:auto;text-rendering:auto;enable-background:accumulate" />
      <path
         inkscape:connector-curvature="0"
         id="path2201"
         d="m 225.75149,116.77332 8.33052,-1.96123"
         style="fill:none;fill-rule:evenodd;stroke:#000000;stroke-width:0.31844088;stroke-linecap:butt;stroke-linejoin:miter;stroke-miterlimit:4;stroke-dasharray:none;stroke-opacity:1;marker-end:url(#Arrow1Mend)" />
      <g
         transform="translate(0.66817382,-0.73499123)"
         id="g4493">
        <path
           id="path4444-9"
           title="t exp(-0.2*t*t)"
           d="m 219.43406,116.62333 c 0.0649,-0.003 0.12985,-0.006 0.19477,-0.01 0.065,-0.004 0.12985,-0.007 0.19477,-0.0114 0.065,-0.004 0.12985,-0.009 0.19477,-0.0135 0.065,-0.005 0.12985,-0.0102 0.19477,-0.016 0.0649,-0.006 0.12984,-0.0121 0.19477,-0.0188 0.0649,-0.007 0.12984,-0.0141 0.19477,-0.0221 0.0649,-0.008 0.12985,-0.0165 0.19476,-0.0258 0.065,-0.009 0.12985,-0.0192 0.19478,-0.03 0.065,-0.0108 0.12984,-0.0223 0.19476,-0.0346 0.065,-0.0124 0.12984,-0.0257 0.19477,-0.0399 0.0649,-0.0143 0.12985,-0.0295 0.19477,-0.0457 0.0649,-0.0163 0.12985,-0.0336 0.19477,-0.0521 0.065,-0.0185 0.12984,-0.0382 0.19477,-0.0591 0.065,-0.021 0.12985,-0.0431 0.19476,-0.0668 0.065,-0.0236 0.12985,-0.0485 0.19478,-0.075 0.0649,-0.0264 0.12984,-0.0543 0.19476,-0.0839 0.0649,-0.0295 0.12985,-0.0606 0.19477,-0.0933 0.0649,-0.0328 0.12985,-0.0672 0.19477,-0.10336 0.065,-0.0362 0.12985,-0.0741 0.19477,-0.11386 0.065,-0.0397 0.12984,-0.0813 0.19477,-0.12478 0.065,-0.0434 0.12984,-0.0888 0.19477,-0.13606 0.0649,-0.0472 0.12985,-0.0964 0.19476,-0.14755 0.0649,-0.0512 0.12985,-0.10419 0.19478,-0.15919 0.065,-0.055 0.12984,-0.11194 0.19476,-0.17079 0.065,-0.0589 0.12985,-0.11961 0.19477,-0.18223 0.065,-0.0626 0.12985,-0.12708 0.19477,-0.19332 0.065,-0.0662 0.12985,-0.13425 0.19477,-0.20392 0.0649,-0.0696 0.12984,-0.14098 0.19477,-0.21379 0.0649,-0.0728 0.12985,-0.14715 0.19476,-0.2228 0.065,-0.0756 0.12985,-0.15261 0.19478,-0.23069 0.065,-0.0781 0.12984,-0.15726 0.19476,-0.2373 0.065,-0.08 0.12985,-0.16095 0.19477,-0.24245 0.0649,-0.0815 0.12985,-0.16356 0.19477,-0.24591 0.0649,-0.0824 0.12985,-0.16498 0.19477,-0.24757 0.065,-0.0826 0.12984,-0.16511 0.19477,-0.24725 0.065,-0.0821 0.12985,-0.16386 0.19477,-0.24483 0.0649,-0.081 0.12985,-0.16115 0.19477,-0.2402 0.065,-0.0791 0.12984,-0.15696 0.19477,-0.23334 0.0649,-0.0764 0.12984,-0.15122 0.19476,-0.22417 0.0649,-0.0729 0.12985,-0.14395 0.19477,-0.2127 0.065,-0.0688 0.12985,-0.13519 0.19477,-0.199 0.065,-0.0638 0.12985,-0.12496 0.19477,-0.18314 0.065,-0.0581 0.12984,-0.11333 0.19477,-0.16522 0.065,-0.0519 0.12985,-0.10043 0.19476,-0.14541 0.0649,-0.045 0.12985,-0.0864 0.19478,-0.12394 0.065,-0.0376 0.12984,-0.0713 0.19477,-0.10099 0.0649,-0.0297 0.12984,-0.0554 0.19476,-0.0768 0.065,-0.0215 0.12985,-0.0387 0.19478,-0.0517 0.0649,-0.013 0.12984,-0.0217 0.19476,-0.026 0.0649,-0.004 0.12984,-0.004 0.19477,0 0.0649,0.004 0.12985,0.013 0.19477,0.026 0.0649,0.013 0.12985,0.0303 0.19477,0.0517 0.065,0.0215 0.12984,0.0472 0.19477,0.0768 0.065,0.0297 0.12984,0.0635 0.19476,0.10099 0.065,0.0375 0.12985,0.079 0.19477,0.12394 0.0649,0.045 0.12985,0.0936 0.19477,0.14541 0.0649,0.0519 0.12985,0.10706 0.19477,0.16522 0.065,0.0581 0.12984,0.11934 0.19477,0.18314 0.065,0.0638 0.12985,0.13026 0.19477,0.199 0.065,0.0688 0.12984,0.13977 0.19477,0.2127 0.0649,0.0729 0.12984,0.14779 0.19477,0.22417 0.0649,0.0764 0.12984,0.15428 0.19476,0.23334 0.0649,0.079 0.12985,0.15925 0.19478,0.2402 0.0649,0.081 0.12984,0.1627 0.19476,0.24483 0.065,0.0821 0.12984,0.16467 0.19477,0.24725 0.065,0.0826 0.12985,0.16522 0.19477,0.24757 0.0649,0.0823 0.12985,0.16443 0.19477,0.24591 0.0649,0.0815 0.12984,0.1624 0.19477,0.24245 0.065,0.08 0.12984,0.15923 0.19476,0.2373 0.065,0.0781 0.12985,0.15505 0.19477,0.23069 0.065,0.0757 0.12985,0.14998 0.19477,0.2228 0.065,0.0728 0.12985,0.14413 0.19477,0.21379 0.0649,0.0697 0.12985,0.13768 0.19477,0.20392 0.0649,0.0662 0.12985,0.13071 0.19477,0.19332 0.065,0.0627 0.12984,0.12338 0.19477,0.18223 0.065,0.0589 0.12984,0.11579 0.19477,0.17079 0.0649,0.055 0.12984,0.10806 0.19476,0.15919 0.065,0.0511 0.12985,0.10029 0.19478,0.14755 0.0649,0.0473 0.12984,0.0926 0.19476,0.13606 0.0649,0.0434 0.12984,0.085 0.19477,0.12478 0.065,0.0397 0.12985,0.0777 0.19477,0.11386 0.0649,0.0362 0.12985,0.0706 0.19477,0.10336 0.065,0.0327 0.12984,0.0638 0.19477,0.0933 0.0649,0.0296 0.12985,0.0574 0.19476,0.0839 0.0649,0.0264 0.12985,0.0515 0.19478,0.075 0.065,0.0236 0.12984,0.0458 0.19476,0.0668 0.065,0.0209 0.12985,0.0406 0.19477,0.0591 0.065,0.0185 0.12985,0.0359 0.19477,0.0521 0.065,0.0163 0.12985,0.0314 0.19477,0.0457 0.0649,0.0143 0.12984,0.0275 0.19477,0.0399 0.0649,0.0124 0.12984,0.0239 0.19477,0.0346 0.0649,0.0108 0.12985,0.0207 0.19476,0.03 0.065,0.009 0.12985,0.0178 0.19478,0.0258 0.065,0.008 0.12984,0.0153 0.19476,0.0221 0.065,0.007 0.12985,0.0131 0.19477,0.0188 0.0649,0.006 0.12985,0.0111 0.19477,0.016 0.0649,0.005 0.12985,0.009 0.19477,0.0135 0.065,0.004 0.12984,0.008 0.19477,0.0114 0.065,0.004 0.12985,0.007 0.19476,0.01"
           style="color:#000000;clip-rule:nonzero;display:inline;overflow:visible;visibility:visible;opacity:1;isolation:auto;mix-blend-mode:normal;color-interpolation:sRGB;color-interpolation-filters:linearRGB;solid-color:#000000;solid-opacity:1;fill:none;fill-opacity:1;fill-rule:evenodd;stroke:#ffffff;stroke-width:0.428;stroke-linecap:butt;stroke-linejoin:miter;stroke-miterlimit:4;stroke-dasharray:none;stroke-dashoffset:0;stroke-opacity:1;color-rendering:auto;image-rendering:auto;shape-rendering:auto;text-rendering:auto;enable-background:accumulate"
           inkscape:connector-curvature="0" />
        <path
           id="path4444"
           title="t exp(-0.2*t*t)"
           d="m 219.48132,116.64094 c 0.0649,-0.003 0.12985,-0.006 0.19477,-0.01 0.065,-0.004 0.12985,-0.007 0.19477,-0.0114 0.065,-0.004 0.12985,-0.009 0.19477,-0.0135 0.065,-0.005 0.12985,-0.0102 0.19477,-0.016 0.0649,-0.006 0.12984,-0.0121 0.19477,-0.0188 0.0649,-0.007 0.12984,-0.0141 0.19477,-0.0221 0.0649,-0.008 0.12985,-0.0165 0.19476,-0.0258 0.065,-0.009 0.12985,-0.0192 0.19478,-0.03 0.065,-0.0108 0.12984,-0.0223 0.19476,-0.0346 0.065,-0.0124 0.12984,-0.0257 0.19477,-0.0399 0.0649,-0.0143 0.12985,-0.0295 0.19477,-0.0457 0.0649,-0.0163 0.12985,-0.0336 0.19477,-0.0521 0.065,-0.0185 0.12984,-0.0382 0.19477,-0.0591 0.065,-0.021 0.12985,-0.0431 0.19476,-0.0668 0.065,-0.0236 0.12985,-0.0485 0.19478,-0.075 0.0649,-0.0264 0.12984,-0.0543 0.19476,-0.0839 0.0649,-0.0295 0.12985,-0.0606 0.19477,-0.0933 0.0649,-0.0328 0.12985,-0.0672 0.19477,-0.10336 0.065,-0.0362 0.12985,-0.0741 0.19477,-0.11386 0.065,-0.0397 0.12984,-0.0813 0.19477,-0.12478 0.065,-0.0434 0.12984,-0.0888 0.19477,-0.13606 0.0649,-0.0472 0.12985,-0.0964 0.19476,-0.14755 0.0649,-0.0512 0.12985,-0.10419 0.19478,-0.15919 0.065,-0.055 0.12984,-0.11194 0.19476,-0.17079 0.065,-0.0589 0.12985,-0.11961 0.19477,-0.18223 0.065,-0.0626 0.12985,-0.12708 0.19477,-0.19332 0.065,-0.0662 0.12985,-0.13425 0.19477,-0.20392 0.0649,-0.0696 0.12984,-0.14098 0.19477,-0.21379 0.0649,-0.0728 0.12985,-0.14715 0.19476,-0.2228 0.065,-0.0756 0.12985,-0.15261 0.19478,-0.23069 0.065,-0.0781 0.12984,-0.15726 0.19476,-0.2373 0.065,-0.08 0.12985,-0.16095 0.19477,-0.24245 0.0649,-0.0815 0.12985,-0.16356 0.19477,-0.24591 0.0649,-0.0824 0.12985,-0.16498 0.19477,-0.24757 0.065,-0.0826 0.12984,-0.16511 0.19477,-0.24725 0.065,-0.0821 0.12985,-0.16386 0.19477,-0.24483 0.0649,-0.081 0.12985,-0.16115 0.19477,-0.2402 0.065,-0.0791 0.12984,-0.15696 0.19477,-0.23334 0.0649,-0.0764 0.12984,-0.15122 0.19476,-0.22417 0.0649,-0.0729 0.12985,-0.14395 0.19477,-0.2127 0.065,-0.0688 0.12985,-0.13519 0.19477,-0.199 0.065,-0.0638 0.12985,-0.12496 0.19477,-0.18314 0.065,-0.0581 0.12984,-0.11333 0.19477,-0.16522 0.065,-0.0519 0.12985,-0.10043 0.19476,-0.14541 0.0649,-0.045 0.12985,-0.0864 0.19478,-0.12394 0.065,-0.0376 0.12984,-0.0713 0.19477,-0.10099 0.0649,-0.0297 0.12984,-0.0554 0.19476,-0.0768 0.065,-0.0215 0.12985,-0.0387 0.19478,-0.0517 0.0649,-0.013 0.12984,-0.0217 0.19476,-0.026 0.0649,-0.004 0.12984,-0.004 0.19477,0 0.0649,0.004 0.12985,0.013 0.19477,0.026 0.0649,0.013 0.12985,0.0303 0.19477,0.0517 0.065,0.0215 0.12984,0.0472 0.19477,0.0768 0.065,0.0297 0.12984,0.0635 0.19476,0.10099 0.065,0.0375 0.12985,0.079 0.19477,0.12394 0.0649,0.045 0.12985,0.0936 0.19477,0.14541 0.0649,0.0519 0.12985,0.10706 0.19477,0.16522 0.065,0.0581 0.12984,0.11934 0.19477,0.18314 0.065,0.0638 0.12985,0.13026 0.19477,0.199 0.065,0.0688 0.12984,0.13977 0.19477,0.2127 0.0649,0.0729 0.12984,0.14779 0.19477,0.22417 0.0649,0.0764 0.12984,0.15428 0.19476,0.23334 0.0649,0.079 0.12985,0.15925 0.19478,0.2402 0.0649,0.081 0.12984,0.1627 0.19476,0.24483 0.065,0.0821 0.12984,0.16467 0.19477,0.24725 0.065,0.0826 0.12985,0.16522 0.19477,0.24757 0.0649,0.0823 0.12985,0.16443 0.19477,0.24591 0.0649,0.0815 0.12984,0.1624 0.19477,0.24245 0.065,0.08 0.12984,0.15923 0.19476,0.2373 0.065,0.0781 0.12985,0.15505 0.19477,0.23069 0.065,0.0757 0.12985,0.14998 0.19477,0.2228 0.065,0.0728 0.12985,0.14413 0.19477,0.21379 0.0649,0.0697 0.12985,0.13768 0.19477,0.20392 0.0649,0.0662 0.12985,0.13071 0.19477,0.19332 0.065,0.0627 0.12984,0.12338 0.19477,0.18223 0.065,0.0589 0.12984,0.11579 0.19477,0.17079 0.0649,0.055 0.12984,0.10806 0.19476,0.15919 0.065,0.0511 0.12985,0.10029 0.19478,0.14755 0.0649,0.0473 0.12984,0.0926 0.19476,0.13606 0.0649,0.0434 0.12984,0.085 0.19477,0.12478 0.065,0.0397 0.12985,0.0777 0.19477,0.11386 0.0649,0.0362 0.12985,0.0706 0.19477,0.10336 0.065,0.0327 0.12984,0.0638 0.19477,0.0933 0.0649,0.0296 0.12985,0.0574 0.19476,0.0839 0.0649,0.0264 0.12985,0.0515 0.19478,0.075 0.065,0.0236 0.12984,0.0458 0.19476,0.0668 0.065,0.0209 0.12985,0.0406 0.19477,0.0591 0.065,0.0185 0.12985,0.0359 0.19477,0.0521 0.065,0.0163 0.12985,0.0314 0.19477,0.0457 0.0649,0.0143 0.12984,0.0275 0.19477,0.0399 0.0649,0.0124 0.12984,0.0239 0.19477,0.0346 0.0649,0.0108 0.12985,0.0207 0.19476,0.03 0.065,0.009 0.12985,0.0178 0.19478,0.0258 0.065,0.008 0.12984,0.0153 0.19476,0.0221 0.065,0.007 0.12985,0.0131 0.19477,0.0188 0.0649,0.006 0.12985,0.0111 0.19477,0.016 0.0649,0.005 0.12985,0.009 0.19477,0.0135 0.065,0.004 0.12984,0.008 0.19477,0.0114 0.065,0.004 0.12985,0.007 0.19476,0.01"
           style="color:#000000;clip-rule:nonzero;display:inline;overflow:visible;visibility:visible;opacity:1;isolation:auto;mix-blend-mode:normal;color-interpolation:sRGB;color-interpolation-filters:linearRGB;solid-color:#000000;solid-opacity:1;fill:none;fill-opacity:1;fill-rule:evenodd;stroke:#585858;stroke-width:0.22802794;stroke-linecap:butt;stroke-linejoin:miter;stroke-miterlimit:4;stroke-dasharray:none;stroke-dashoffset:0;stroke-opacity:1;color-rendering:auto;image-rendering:auto;shape-rendering:auto;text-rendering:auto;enable-background:accumulate"
           inkscape:connector-curvature="0" />
      </g>
    </g>
  </g>
</svg>
